# xmcd
#
# Track frame offsets:
#	150
#	57937
#	78202
#	116443
#	136223
#	169340
#	202935
#	225660
#
# Disc length: 3344 seconds
#
# Revision: 1
# Processed by: cddbd v1.4PL0 Copyright (c) Steve Scherf et al.
# Submitted via: audiograbber 1.80
#
DISCID=5f0d0e08
DTITLE=Il-Laus - Fix-Xarabank
DYEAR=1900
DGENRE=
TTITLE0=Tal-Pittur
TTITLE1=Tal-Majjala
TTITLE2=Bih Fidejja
TTITLE3=Il-Gideb
TTITLE4=Il-Mara
TTITLE5=F' L-Ingilterra
TTITLE6=Fix-Xarabank
TTITLE7=Il-Landier
EXTD=
EXTT0=
EXTT1=
EXTT2=
EXTT3=
EXTT4=
EXTT5=
EXTT6=
EXTT7=
PLAYORDER=
